<svg width="65" height="65" viewBox="0 0 65 65" fill="none" xmlns="http://www.w3.org/2000/svg">
<path d="M32.5 65C14.5232 65 0 50.4768 0 32.5C0 14.5232 14.5232 0 32.5 0C50.4768 0 65 14.5232 65 32.5C65 50.4768 50.2997 65 32.5 65ZM32.5 58.624C46.9346 58.624 58.624 46.9346 58.624 32.5C58.624 18.0654 46.9346 6.37602 32.5 6.37602C18.0654 6.37602 6.37602 18.0654 6.37602 32.5C6.37602 46.9346 18.0654 58.624 32.5 58.624ZM20.0136 49.5027L15.5858 44.9864L44.9864 15.5858L49.5027 20.0136L20.0136 49.5027ZM16.5599 21.8733C16.5599 18.8624 18.7738 16.5599 21.8733 16.5599C25.0613 16.5599 27.1867 19.2166 27.1867 21.7847C27.1867 24.6185 24.7956 27.1866 21.8733 27.1866C18.951 27.1866 16.5599 24.7956 16.5599 21.8733ZM43.2153 48.5286C40.0272 48.5286 37.9019 45.8719 37.9019 43.2153C37.9019 40.2044 40.2044 37.9019 43.2153 37.9019C46.4033 37.9019 48.5286 40.5586 48.5286 43.2153C48.5286 46.049 46.049 48.5286 43.2153 48.5286Z" fill="black"/>
</svg>
